<?xml version="1.0" standalone="no"?>
<!DOCTYPE svg PUBLIC "-//W3C//DTD SVG 20010904//EN"
 "http://www.w3.org/TR/2001/REC-SVG-20010904/DTD/svg10.dtd">
<svg version="1.0" xmlns="http://www.w3.org/2000/svg"
 width="256.000000pt" height="256.000000pt" viewBox="0 0 256.000000 256.000000"
 preserveAspectRatio="xMidYMid meet">
<metadata>
Created by potrace 1.14, written by Peter Selinger 2001-2017
</metadata>
<g transform="translate(0.000000,256.000000) scale(0.100000,-0.100000)"
fill="#000000" stroke="none">
<path d="M1190 2546 c-19 -7 -57 -28 -83 -46 -80 -54 -191 -82 -327 -82 -62
-1 -247 11 -300 18 -59 8 -160 5 -179 -5 -45 -25 -18 -73 88 -152 79 -60 182
-111 271 -134 63 -17 214 -23 273 -12 79 16 -45 -70 -153 -105 -45 -14 -97
-22 -170 -24 -113 -3 -192 10 -348 61 -91 29 -109 26 -93 -17 13 -35 112 -120
176 -151 90 -45 159 -58 315 -62 134 -4 146 -6 162 -26 17 -20 17 -23 0 -52
-27 -47 -126 -114 -203 -138 -73 -22 -210 -30 -313 -19 -61 7 -96 -2 -96 -24
0 -21 63 -72 129 -106 153 -77 313 -77 557 -1 112 35 132 37 141 15 8 -21 -11
-54 -71 -118 -110 -118 -239 -201 -330 -212 -54 -7 -94 6 -149 49 -50 39 -67
32 -57 -24 7 -39 4 -66 -15 -112 -10 -24 -86 -67 -119 -67 -38 0 -85 22 -142
65 -61 47 -67 34 -29 -70 49 -134 35 -238 -50 -371 l-35 -54 33 6 c43 7 143 7
187 0 63 -12 134 -54 198 -118 67 -67 89 -70 72 -8 -22 84 -15 155 18 194 26
29 94 56 128 50 16 -3 46 -16 66 -30 55 -36 61 -32 52 29 -17 112 -1 161 77
231 120 107 405 207 417 145 1 -8 -29 -51 -69 -95 -187 -207 -250 -344 -244
-528 2 -79 29 -151 55 -151 9 0 29 34 52 90 64 152 101 216 159 275 89 91 215
139 245 95 12 -18 9 -30 -23 -100 -65 -146 -94 -243 -98 -330 -4 -124 37 -267
82 -282 18 -6 30 26 37 98 20 216 77 364 184 477 59 62 136 122 157 122 7 0
-8 -41 -37 -98 -77 -154 -96 -297 -61 -472 25 -128 56 -180 95 -159 22 12 70
111 113 234 67 192 149 347 217 411 18 18 59 48 90 68 98 62 139 139 132 246
-6 75 -44 137 -109 172 -65 35 -174 60 -272 60 -43 1 -90 7 -104 14 -41 20
-62 76 -56 144 13 148 128 251 422 375 73 31 148 69 168 86 20 16 50 57 66 92
52 106 46 199 -16 260 -45 45 -104 62 -194 54 -83 -7 -126 -29 -214 -112 -236
-223 -407 -301 -541 -250 -114 43 -131 92 -78 214 19 46 38 95 40 109 3 15 9
42 14 60 22 83 -3 189 -57 240 -62 58 -181 85 -253 58z"/>
</g>
</svg>
